<svg width="290" height="241" viewBox="0 0 290 241" fill="none" xmlns="http://www.w3.org/2000/svg">
<path d="M36.0121 69.3958V138.729H39.2121C40.9454 138.729 42.8121 137.796 43.2121 136.596C44.2788 133.929 44.2788 4.86246 43.2121 2.19579C42.8121 0.995789 40.9454 0.0624542 39.2121 0.0624542H36.0121V69.3958Z" fill="white"/>
<path d="M246.679 2.72916C246.679 4.19582 246.679 34.1958 246.679 69.3958C246.679 104.596 246.679 134.596 246.679 136.062C246.679 139.396 252.679 139.796 253.879 136.596C254.945 133.929 254.945 4.86249 253.879 2.19582C252.679 -1.00418 246.679 -0.604187 246.679 2.72916Z" fill="white"/>
<path d="M72.2788 6.99579C71.2121 8.06245 70.6788 15.6625 70.6788 32.4625C70.6788 54.8625 70.5455 56.4625 68.0121 58.4625C65.3455 60.7291 65.2121 61.9291 65.3455 113.929C65.3455 173.662 65.2121 172.062 74.6788 172.062C84.2788 172.062 84.0121 173.662 84.0121 114.329C84.0121 62.9958 83.8788 61.2625 81.3455 59.1291C78.8121 56.9958 78.6788 55.1291 78.6788 32.7291C78.6788 9.79579 78.0121 5.3958 74.6788 5.3958C74.2788 5.3958 73.2121 6.06245 72.2788 6.99579Z" fill="white"/>
<path d="M212.012 7.92914C211.212 9.52914 210.679 20.1958 210.679 33.2625C210.679 55.7958 210.679 55.9291 207.345 59.2625L203.879 62.7291L204.279 114.729C204.679 166.062 204.679 166.729 207.612 169.529C211.479 173.396 218.412 173.262 221.612 169.262C223.879 166.729 224.012 162.062 224.012 113.929C224.012 62.9958 223.879 61.2625 221.345 59.1291C218.812 56.9958 218.679 55.1291 218.679 31.9291C218.679 10.4625 218.412 6.86247 216.545 6.1958C213.612 5.12914 213.612 5.12914 212.012 7.92914Z" fill="white"/>
<path d="M0.812125 30.0625C-0.521208 33.7958 -0.121208 101.396 1.34546 104.062C2.14546 105.662 3.61213 106.196 5.34546 105.796C8.01213 105.129 8.01213 104.329 7.74546 66.8625C7.34546 29.1291 7.34546 28.7291 4.54546 28.3291C2.81213 28.0625 1.34546 28.8625 0.812125 30.0625Z" fill="white"/>
<path d="M282.279 28.8625C281.745 29.3958 281.345 46.7291 281.345 67.5291C281.345 103.662 281.479 105.129 284.012 105.796C285.345 106.196 287.212 105.662 288.012 104.729C288.945 103.662 289.212 90.4625 289.079 65.9291C288.679 29.6625 288.679 28.7291 286.012 28.3291C284.412 28.0625 282.812 28.3291 282.279 28.8625Z" fill="white"/>
<path d="M106.945 41.6625C105.879 42.7291 105.345 49.2625 105.345 63.3958C105.345 81.9291 105.079 83.6625 102.679 85.3958C100.279 87.1291 100.012 88.8625 100.012 106.862C100.012 124.596 100.279 126.462 102.679 128.729C105.212 130.996 105.345 132.862 105.345 167.396C105.345 197.929 105.612 204.062 107.345 205.396C108.412 206.329 110.279 206.729 111.345 206.196C113.079 205.529 113.345 200.329 113.345 168.996C113.345 134.462 113.479 132.329 116.012 129.396C119.612 125.262 120.279 120.062 119.745 102.996C119.345 89.9291 118.945 87.9291 116.412 85.1291C113.612 82.1958 113.345 80.5958 113.079 61.3958C112.679 44.1958 112.279 40.7291 110.679 40.3291C109.479 40.1958 107.879 40.7291 106.945 41.6625Z" fill="white"/>
<path d="M177.745 40.9958C176.412 41.3958 176.012 46.8625 176.012 61.7958C176.012 80.8625 175.879 82.0625 173.079 85.1292C170.145 88.0625 170.012 89.3958 170.012 107.529C170.012 126.062 170.145 126.996 172.945 129.129C175.879 131.396 176.012 131.796 176.279 168.729L176.679 206.062H180.012H183.345L183.745 168.329C184.012 132.862 184.145 130.596 186.679 128.062C189.079 125.662 189.345 123.529 189.345 106.329C189.345 88.8625 189.079 87.2625 186.679 85.6625C184.145 84.1958 184.012 82.5958 184.012 62.8625C184.012 44.7292 183.745 41.5292 181.879 40.8625C180.679 40.4625 179.745 40.0625 179.612 40.1958C179.479 40.1958 178.545 40.5958 177.745 40.9958Z" fill="white"/>
<path d="M142.279 55.6625C141.745 56.0625 141.345 68.0625 141.345 82.0625C141.345 105.796 141.212 107.929 138.679 110.729C134.812 115.263 134.279 118.196 134.945 136.063C135.345 150.196 135.745 152.329 138.412 155.129C141.345 158.196 141.345 158.863 141.345 199.129V240.062H144.545C146.279 240.062 148.145 239.129 148.545 237.929C148.945 236.729 149.345 218.329 149.345 196.863C149.345 159.796 149.479 157.529 152.012 154.329C154.412 151.396 154.679 148.996 154.679 132.996C154.679 117.129 154.412 114.729 152.012 111.663C149.612 108.596 149.345 106.329 149.345 83.1292C149.345 65.2625 148.812 57.3958 147.745 56.3292C146.012 54.5958 143.612 54.1958 142.279 55.6625Z" fill="white"/>
</svg>
